<?xml version="1.0" encoding="UTF-8"?>
<svg id="katman_1" data-name="katman 1" xmlns="http://www.w3.org/2000/svg" viewBox="0 0 738.96 1126.67">
  <path d="M8.96,1126.67c3.71-21.1,12.75-38.79,23.77-56.73,6.92-11.26,11.72-9.58,14.2-24.8,14.3-87.91-11.12-198.67,7.56-289l-18.61-54.89c-9.87-5.64-34.78-16.52-35.82-29.15s11.79-54.04,12.94-72.9c1.96-32.07,6.2-96.21,3-126.07-1.01-9.47-5.84-19.49-7.55-29.45-7.09-41.17,8.59-89.14,31.88-123.15,33.82-49.39,103.82-67.82,155.64-91.88,0-7.1-4.86-8.36-7.06-14.44-3.66-10.12-15.27-54.27-6.93-61.02,2.87-2.33,6.26-.16,7.01-3.03-1.66-20.54-8.39-40.52-10.01-61.02-.61-7.68,4.09-17.67-2.03-19,2.44-2,.8-7.38.97-7.78.83-1.96,26.09-28.55,29.03-31.2,61.22-55.14,129.7-32.73,168.17,32.84,9.83,16.76,8.8,28.66,5.57,45.91-1.32,7.05-13.63,48.75-12.75,51.25l8.48,1.56c8.35,10.33-17.03,67.57-15.28,70.78,37.94,16.35,80.42,27.15,110.82,56.66,37.24,36.15,29.74,100.64,34.02,148.98,2.4,27.14,7.27,114.19,21.1,132.9,2.39,3.23,8.99,5.25,12.39,8.61,16.79,16.62,18.26,33.46,22.19,55.81,2.08,11.85,0,25.07,6.3,35.22,15.55-9.07,27.89,21.55,30.94,32.64.88,3.21-1.81,5.09-1.52,6.36.97,4.34,35.42,31.26,40.59,38.47,9.19,12.82,12.74,38.61,21.92,53.16l-7.86,15.87c40.39,52.53,48.63,116.35,45.88,180.98-.59,13.91-5.77,27.87-2.38,41.57l43.4,39.96v4l-49.03-44.47c-11.13-1.65-22.92,5.86-28.76,15.17-12.48,19.87-.94,18.89,4.07,35.52,3.49,11.57,2.33,24.33,6.72,35.78h-3c-4.89-10.15-3.63-22.72-6.48-33.02-3.78-13.66-6.51-8.17-14.54-16.46s-10.58-19.11-18-28c-14.46-17.33-39.57-36.05-56.01-53.99-21.05-22.97-43.26-48.82-53.99-78.52-26.4,51.75-11.14,104.78-10.02,159.47l-21.8,16.13,4.83,34.41h-3l-5.49-32.97c-24.06,13.72-54.81,6.91-80.71,2.67-43.45-7.12-89.03-19.28-128.14-39.45-13.28,5.43-34.6,25.49-48.12,26.79-23.52,2.26-69.43-14.54-93.06-20.94l-31.48,63.9h-3c6.44-23.16,17.16-45.53,31.98-64.5-11.4-6.63-22.08-17.56-25.99-30.5-15.96,12.26-48.24,38.57-55.17,57.32-4.14,11.2-.49,25.81-2.82,37.68h-3l.5-28.01-9.5,28.01h-3c7.35-41.65,38.27-74.32,71.48-97.94.75-8.66-5.95-9.77-8-17.08-37.38,30.45-74.66,65.41-84.49,115.01h-3ZM332.96,59.17c.66,4.53-.48,10.29,0,15l-1.99,7.01,6.01-15.51c5.9,3.61-3.28,14.67-5.01,18.99,17.26-11.09,10.83-40.66-3.01-51.98,18.77,7.55,21.39,39.61,8,52.98,20.34.66,18.2-26.44,12.01-38.98,10.69,8.98,9.89,27.85,1,37.98,10.07-2.56,12.06-16.41,12.01-24.99,5.21,7.31.7,23-8.01,27.49,13.29,10.88,5.59,29.78,7.04,42.87.74,6.73,7.54,14.79,5.45,23.65,1.33-20.35,15.3-40.18,9.58-60.46l3.93-1.07-4.02-12.48,3-.5c.65-3.98-26.45-43-31.07-46.93-24.46-20.84-41.07-29.61-72.5-26.62-3.1.3-5.75-2.5-10.67-1.75-10.78,1.66-45.83,21.39-54.76,29.28-2.73,2.41-23.83,24.9-25.08,26.96-1.09,1.8,1.15,6.02-2.91,8.51l12.99,88.02c-5-11.91,9.13-27.58,9.98-34.61,1.42-11.68-8.66-30.85,6.02-40.89-14.38-6.05-14.14-22.35-5.48-33.48l-2.44,20.42,7.92,9.56c-14.17-15.3.95-37.93,17-43.98-12.32,16.05-19.87,45.43,9,46.98-15.25-13.33-7.34-38.15,9.99-44.98-3.05,5.14-9.02,7.92-11.81,13.68-5.67,11.71-4.41,26.68,8.82,32.3-15.28-21.69,9.04-48.91,30-52.98-17.1,15.28-26.13,37.91-13.01,58.99-15.6-12.93-9.16-37.47,2.01-50.99-26.17,12.44-29.07,51.78,5,54.98-6.77-6.58-9.9-15.15-9-24.51l1.99-1.47c-.84,11.14,4.39,25.38,17.01,26.98-14.49-12.46-14.02-40.77-1.01-53.99-7.24,15.72-12.34,42.32,5.38,52.9,6.63-6.38,7.49-16.35,8.64-24.9l1.98,1.47-2.5,16.53c12.06-17.04,14-40.91,2.69-58.68l1.3-2.3c18.67,13.96,26.16,45.23,8.52,62.98,9.25-3.37,13.23,3.99,15.02,12,4.26-4.77-1.27-14.02-1.02-17.42.15-2.02,3.78-5.63,4.31-8.76,1.69-9.92,2.26-16.82-.3-26.81,5.13,6.29,4.7,17.38,3.35,24.86-1.22,6.78-6.96,9.19-3.35,16.14,18.79-14.43,5.67-44.43-10.01-55.99,10.1,2.57,20.64,19.09,22,28.49ZM298.74,89.51c.75-.5,8.43-13.79,9-15.56,4.38-13.41,1.63-29.26-7.28-40.27,6.17,19.51,4.08,44.44-14.48,56.52.24,3.48,11.34.26,12.76-.68ZM219.96,78.66c-9.29-10.9-5.54-22.8-2.49-34.98-10.87,9.42-14.82,31.37,2.49,34.98ZM204.96,238.17v21.5h1v-19c4.42-.41.12,9.67,3.51,9.99,1.61.15-1.49-5.84,2.49-4.99v19h1v-15l2,1.48,2,27.52v-24l3.01,9.99,2.99-2.99v17.5l2,7.5v-19.5c0-1.73,2.93-.36,2.97-.51,2.11-7.52,1.67-14.74,9.69-19.83,1.82-1.16,27.03-7.26,28.89-7.2,1.95.06,14.55,5.96,14.99,7.06l-.55,11.97-2.01-4.99-3.98,3.99.49-6.01c-2.1,7.45-5.93,1.93-11.49,6.01l-1-3.99-3.01,4-.5-3.02-3.5,2.02-.5-3.02c-1.56,4.91-5.66-.27-9.5,4l71.99,3.01-8-4.99-1.48,2.98-3.52-4.98-1.48,4.97-2-2.99-.99,3.01-2.52-3.98-1.01,2.99h-9.46s-4.6-10.53-4.6-10.53l3.09-3.46c-8.35,2.63-11.82-4.5-16.95-6.58-3.09-1.25-5.8.66-7.44.27-8.06-1.92-5.25-13.87-1.59-18.69l2,.51c-1.59,5.98-4.77,9.33-.93,15.44,9.65-5,12.73,5.76,20.39,6.15,9.1.46,10.67-9.01,20.09-5.99l.91-14.11c4.97,3.06,4.67,15.81-.51,17.52-2.78.92-7.57-3.83-10.97,2.46,17.13,1.84,36.55,5.46,40.51,25.01,13-16.14,22.68-25.5,27.2-46.78,7.07-33.32,2.68-57.29-.63-88.79-1.31-12.48,5.6-30.8-6.59-41.43h-29.5c2.29,3.33-3.7,21.48-7.49,19.01,3.14-31.67-16.56-11.89-34.99-11.93-22.09-.04-33.2-13.14-52.16-13.94-32.82-1.38-17.3,23.81-19.54,41.1-.54,4.18-6.35,10.11-7.88,15.2-3.49,11.62-4.94,47.38-3.91,60.03,2.04,25.06,14.84,38.99,27.97,58.52l-17.02-19.99-1.98,1.5ZM192.95,171.67c2.06-3.81-2.22-19-7.96-16.54l-1.94,2.9,9.89,13.64ZM193.95,216.67c-3.07-18.08,4.32-40.24-10.97-53.99-.86,18.68,4.74,36.72,10.97,53.99ZM374.96,168.65l-2.01-4.54c-6.54-.32-7.91,6.52-6.97,11.56l8.98-7.02ZM364.95,209.66l9-37.99c-11.31,8.67-9.47,25.38-9,37.99ZM203.96,233.67c.31-.34-1.56-5.97-2.98-5.99-.18,2.34-.57,6.24,2.98,5.99ZM195.95,231.68c-9.85,1.74-11.93,5.53-15.47,14.02-14.53,34.85,7.4,80.49,24.47,110.97-7.3-6.53-13.8-18.64-17.85-27.64-11.36-25.24-22.37-64.02-6.16-88.87l-1.46-1.46c-48.83,23.85-106.01,38.64-137.54,86.46-14.84,22.5-29.39,57.29-31.85,84.15-5.96,64.92,47.78,136.62,84.86,185.87l-14.96-15.04c-22.94-30.84-43.58-63.64-60.02-98.46-3.96,49.32-.12,99.25-7.31,148.19-2.02,13.75-13.66,40.5-4.18,50.78,22.06,23.91,97.07,34.6,126.53,19.33.93-2.49-3.26-18.83-3.14-23.81.23-9.17,5.34-16.39,6.09-24,1.06-10.69-3.91-16.81-4.07-26.01-.13-7.39,3.57-12.89,4.06-18.99.8-9.74-3.08-18.76-3.08-27.99,0-8.38,3.38-16.48,3.06-24.98-.75-19.77-22.74-42.82-31.97-60.04l22.99,31.02c-.04-40.77-13.21-81.24-23.99-120.51,2.88-.19,3.88,5.63,4.74,7.75,15.17,37.33,17.87,77.3,24.49,116.51,1.02,6.03,5.81,12.31,6.65,19.35,1.38,11.57-2.14,24.56-1.91,36.91.12,6.69,3.48,12.54,3.07,20.01-.36,6.54-5.23,14.4-5.12,20.97.12,6.98,5.42,14.37,5.14,22.99-.35,10.81-6.49,17.93-6.11,32.05.16,6.11,2.46,26.34,6.03,29.97,1.51,1.54,15.12,8.28,16.77,8.31l2.75-.83c14.41-56.13,34.2-117.8,99.5-129.01-17.83-32.58,4.68-71.08,8.85-105.64,3.7-30.66,1.46-62.82,9.14-93.35-25.47,5.74-55.53-9.73-70.98-29.99,19.5,16.6,43.97,32.21,70.99,27.5l5.99-15.5c-48.58,9.85-74.09-21.25-87.25-63.24-7.87-25.11-16.23-53.75-1.75-77.76ZM354.95,243.68l1-7c-1.5.53-4.86,8.33-1,7ZM500.95,408.67c-3.18-20.01-.63-43.7-4.25-63.23-4.67-25.22-16.72-44.87-36.27-60.73-28.82-23.37-66.53-32.88-99.97-48.01l-28.49,82.97c6.79-2.53,13.32-4.88,20.6-5.85,2.89-.39,8.11,2.23,10.7,1.68.88-.19,6.69-5.4,10.42-6.59,59.11-18.84,115.09,48.14,127.26,99.76ZM335.98,290.68c-18.37,27.3-37.64,47.58-73.81,38.29-25.73-6.61-65.91-62.61-65.22-90.29-13.41,21.95,1.03,68.05,11.16,90.35,11.99,26.39,36.08,45.08,66.38,42.67,17.17-1.36,17.73-15.65,27.96-28.03,6-7.26,23.75-18.95,26.19-22.3,2.99-4.1,7.9-25.05,7.33-30.68ZM351.95,250.67l-.97-5.99-14.01,17.51,1.98.47-.98,20,2.99-23.99,2,1.47.98,11.51,1.02-16.99,2,1.47.98,10.51,1.02-16.99,2.98,1ZM209.96,268.67v-14h-1v14h1ZM227.96,270.67v17.5l1.99,7.49.03-22.99,1.99,1.48v7.51s3-3.99,3-3.99v21h1v-14c5.45,4.33,6.75,12.52,6.01,18.99l2.98-8,1.02,15,.98-8.51,1.99-1.48,5,20c1.53-19.2-22.16-36.5-18.54-54.06.63-3.06,3-7.35,5.91-8.91l-.37-3.02-7.95,15.59-5.03.4ZM269.95,280.69c-7.89,3.26-26.05-22.74-28.46-20.98-10.65,10.17,8.92,53.23,23.98,39.99,8.42-7.41-5.17-9.95-3.52-18.02l8-.99ZM301.96,263.69l-47.01-1.51c14.51,5.38,32.57,8.89,47.01,1.51ZM287.97,282.66l8.98,1.58-5.84,9.17c4.35,19.75,26.41-3.11,28.4-13.68,1.18-6.26-.23-12.06-1.57-18.06-11.23,5.51-15.59,18.81-29.98,20.98ZM324.67,265.94c-.09-.18-4.37-5.13-3.69-1.81l.99,16.55,2.98-1,1,11.99,4-19.47-4.51.5c-1.2-2.08.22-4.7-.77-6.76ZM306.96,266.69c-19.04,5.95-37.85,5.28-56-3,12.58,18.99,41.92,22.42,56,3ZM333.95,268.68h-2.98s1,7.99,1,7.99l1.98-7.99ZM286.96,282.69c-2.68.6-8.14-1.34-9.99.97,2.68-.6,8.14,1.34,9.99-.97ZM283.96,303.17v18.5l2.01-21,4.85,2.64-.86,13.35,4.99-11.98-1.98,16.99,5-16.99,1.5.98-3.5,18.02,7-20,1.99,1.48.98,8.51.5-12.01c-8.09,4.72-18.38,2.36-18.52-8-4.35.19-3.35,5.04-5.95-.98l-1.99,3.98-2.52-7,.51,22.01,3.47-9.01,2.52.52ZM317.95,300.67l-.48-10.99c-3.17-.31-1.07,9.93.48,10.99ZM271.96,319.17c-.2-6.31,0-12.68,0-19,0-1.99,2.92-2,2.98-3.48l-3.98-5.01c3.13,4.69-7.36,12.3-7,12.97,2.53,4.83,4.19-3.88,7-1.98l1.01,22.98c2.83-.77.02-5.51-.01-6.49ZM309.97,315.67l2.72-4.77,1.26-16.22c-5.82,4.24-.04,13.07-3.98,20.99ZM256.97,304.69l-4.03-.5,2.72,14.28,3.28,5.2c-3.86-3.83-1.62-18.08-1.98-18.99ZM263.95,319.67l-.15-13.33-5.7-.52-.13,5.85,3.98-4.99,1.99,12.99ZM276.95,324.67c-.59-6.22-.38-12.95-1.97-18.99.22,6.24-.99,13.2,1.97,18.99ZM286.96,623.67v-14.5c0-.49,1.58-5.75,1.93-6.07l3.06-.44c1.15,12.23,7.62,24.03,18.53,29.99l1.47-.48-5.81-7.19,1.3-2.3c6.77,8.67,15.64,11.33,26.12,13,2.09.33,7.73-4.03,9.39,1.98l-16.83.17c-12.29,35.53-35.03,64.69-54.58,95.92-6.49,10.37-11.5,22.08-18.35,32.65-5.03,7.75-17.21,18.64-20.19,24.08-3.63,6.63-6.97,22.35-10.87,30.86-2.97,6.5-20.3,39.32-20.22,42.83.32,14.4,46.38,51.04,56.46,64.6,15.53,20.89,22.59,51.04,45.1,67.88,4.51-5.8,13.65-10.5,19.33-3.3-1.75,19.9-13.24,37.83-27.92,50.73-.97.86-18,8.6-15.91,11.58,36.95,17.38,76.71,28.43,116.98,35.53,39.83,7.02,78.63,15.28,110.99-16.05l-5.98-92.46-13,41.5c2.95-63.16,52.56-140.94,50.05-201.04-.42-9.95-3.76-20.89-4.09-30.91-.37-11.42,2.69-22.96,2.08-33.09-1.67-27.43-56.47-100.3-67.47-130.52-6.01-16.5-6.02-40.99-14.57-57.94-3.17,5.94,4.01,16.93,5.93,24.57,2.69,10.69,5.1,21.51,5.55,32.59-24.58,24.75-49.33,24.06-81.46,16.33-6.17-1.48-13.13-6.29-17.74-7.26-8.54-1.8-24.1,2.33-30.26-7.23,11.88,3.79,24.71,6.09,36.98,1.98l-12.98-9.98c7.82,4.51,18.44,6.08,26.98,2.01-28.68-11.58-26.37-48.68-33.28-74.23-2.99-11.05-8.63-21.44-10.73-32.79l-12,3.5c12.05,24.18,21.7,47.95,23.01,75.49l-10.22-40.27c-7.27-13.75-11.32-33.11-21.76-43.73.1,18.45,8.76,35.23,14,52.49-21.55-30.37-19.3-64.47-9.02-98.48-26.03,33.48-6.53,122.21,19.49,151.02,3.82,4.23,10.55,7.16,13.52,11.97-23.9-10.68-33.76-38.09-39.91-61.57-6.69-25.51-11.59-54.43-6.09-80.42l-3.49,3.99c4.13-14.49,15.2-26.61,20.2-41.8,9.25-28.05,1.53-84.41,32.61-97.39,11.96-4.99,16.43.92,19.99.07.8-.19,7.5-8.23,12.66-10.42,29.52-12.53,59.01,13.17,72.79,37.29l-.76,1.76c-15.25-25.7-54.2-56.55-80.99-28.52,45.79-15.27,64.56,15.79,81,51.51,22.64,49.18,34.62,90.16-1.03,137.98-2.36,3.17-11.58,9.61-11.96,10.3-.91,1.68-2.61,16.34-2,18.22.04.12,2.02-1.17,2.47-.07,3.2,7.84,6.8,16.71,12.51,23.07l-4-25.99,10,32.5-8.97-4.51,6.54,32.95,61.47,112.05,8.97-34.99c2.09,13.35-6.09,30.05-5.63,42.38.89,23.86,3.43,48.77,4.62,73.15.82,16.81-.56,29.28-4.48,45.47-2.82,11.66-16.44,40.38-14.56,49.55,1.22,5.92,11.91,23.43,15.65,29.36,25.41,40.34,65.19,72.94,97.92,107.08,2.68-18.39,16.58-34.57,35.49-37.01l-92.72-165.76c-15.2-67.54-10.95-140.03-19.42-207.58-4.4-35.05-11.64-65.56-52.27-70.73-6.05,15.4-18.68,26.51-31.58,36.07,29.8-37.31,27.82-85.04,16.46-129l1.51-.99c11.35,36.8,14.57,78.95-3.97,114,15.61-14.14,18.55-29.3,18.02-49.53-1.29-49.6-13.72-109.22-36.03-153.45,13.31,15.89,20.96,41.55,25.68,61.8,8.48,36.33,14.59,81.22,11.32,118.18l14.99,2.52c-21.52-50.71-11.81-106.8-25.5-160.5-10.6-41.59-43.38-88.85-87.5-98.5-11.72-2.56-41.68-5.5-42.95,11.05-.28,3.7,3.11,5.91,2.95,9.44-5.66-2.03-6.86-9.32-4-13.98-49.55-4-77.33,41.95-85.71,84.77-5.5,28.12-3.83,56.64-7.45,84.55-3.09,23.81-26.37,81.4-9.38,99.79,1.4,1.52,3.41-2.32,4.2,2.91l15.72,2.04,3.62-6.07v37.99ZM459.96,395.67c-15.16-36.54-35-51.93-75.24-40.83-48.72,13.44-39.57,36.1-46.06,76.03-1.73,10.63-10.15,34.58-9.64,43.25s25.71,54.93,33.61,61.38c20.71,16.94,81.73,26.54,101.15,4.5,28.3-32.13,28.73-85.15,6.16-120.33-10.93,8.57-20.65,12.31-34.98,10.99.58-8.74,10.44-15.8,18.99-16.01l-7.99.52-11,8.49c6.61-16.58,22.45-11.78,32.98-7.99l-3.66-12.09c-10.19-6.46-29.7,9.34-34.03,8.88-2.95-.31-3.5-2.93-3.42-5.28.27-7.81,25.85-13.26,33.11-11.51ZM379.96,352.69c-14.69-4.06-28.07,7.98-32.99,20.99,8.34-11.59,20.83-15.21,32.99-20.99ZM453.96,426.66l7.97-4.49-7.96-3.5v7.99ZM322.97,496.68c-4.3,11.8,7.88,24.74,19.1,16.52l-14.12-34.51-4.07,15.33,6.07,2.66-3.97-8.53,2.83-1.3,4.05,12.17-3.17,1.52-6.72-3.85ZM451.96,552.68c-32.53,5.92-85.35,1.92-103.99-30.01,17.95,31.38,5.13,84.7,43.98,100.02-1.84,7.63-13.11,5.61-19,6l2.98,3.49-2.85,4.39c19.74,7.81,47.08,13.62,67.26,4.99,8.15-3.49,13.92-11.64,22.57-13.93l-9.96-45.94-4.97,26.99,3.99-55.98ZM282.97,594.68c-6.47,1.22-14.32-3.38-20.22-2.8-2.6.26-29.28,11.04-33.13,12.94-29.25,14.45-45.15,51.09-55.35,80.65-3.88,11.25-18.71,59.45-18.24,68.58.62,12.01,15.21,48.9,20.48,61.58,6.3,15.17,13.89,29.76,21.97,44.03,20.79-37.17,41.27-79.36,38.49-122.99,2.38-.56,2.33.96,2.71,2.73,3.2,15.09-.83,29.71-4.22,44.26,6.75-7.09,12.27-15.27,17.53-23.47,5.98-9.34,20.69-32.38,24.48-41.52s21.91-81.37,21.54-88.58c-.27-5.23-7.51-12.91-9.03-18.41l1.98,28.99c-12.3-10.9-10.67-31.18-8.99-45.99ZM282.97,710.67c7-11.4,8.77-26.7,11.89-39.6s8.11-27.24,7.59-40.4c-6.53,26.64-12.3,53.51-19.48,79.99ZM315.7,636.36c-4.19-.32-5.85-1.88-9.27-1.72l-13.46,60.03,30.98-57.5c-4.14-3.41-7.77-.77-8.26-.81ZM595.97,706.67c-3.13-11.63-8.75-22.71-16.95-31.55l-4.05-1.43c7.28,7.62,18.23,20.38,15.45,30.94l5.55,2.04ZM564.96,680.67v21.5l1.99,1.02,20.01-7.53-11.95-18.42-10.05,3.43ZM601.97,750.67l49.01,63.54c2.7-3.14,6.08-6.03,5.79-10.76-.57-9.45-18.94-36.21-19-49.1l-54.86-54.19c-3.87-1.38-15.96,5.05-16.91,9.04,2.49,13.81-.06,49.9,7.52,60.41,4.11,5.69,19.52,11.78,25.91,17.09,10.17,8.45,16.01,22.33,28.53,27.96l-3.08-6.52,8.58-7.52,7.01,4.04c-7.69-20.52-35.4-29.27-38.49-53.99ZM134.94,703.67c-16.06,6.56-33.36,7.7-50.53,7.05l-44.43-7.59c10.99,74.8,77.95,136.12,99.74,203.28,8.98,27.69,3.01,51.25,10.25,78.26l34.99-13.01-4.99-12.98,8.71,12.77,27.28,1.21c.72-.51-11.02-12.92-5.51-16l8.25,16.01,33.27-1.02c-3.23-8.39-7.98-19.86-8.75-28.75-.17-1.91-1.35-3.75,1.74-3.24l9.52,31.07c8.46.43,26.85-2.79,26.58,10.41-.09,4.28-3.47,7.56-2.63,10.47,1.24,4.28,11.67,17.2,18.55,13.55,9.1-4.83-7.37-9.83-9.51-14.54-1.17-2.57.62-5.22-.24-6.69-8.7-14.95-20.66-38.04-29.86-51.16-11.4-16.25-32.08-29.44-44.9-45.1-41.7-50.91-53.91-124.27-77.51-184.01ZM159.92,722.72l-15.95-6.04,9.01,28.99,6.94-22.95ZM57.94,763.68l-1.99,1.47c-9.15,94.37.07,189.13-5.98,283.52l45.42-40.94c-3.61-7.17,4.2-12.82,4.68-16.49,2.44-18.74-5.31-51.85-4.09-74.04,1.14-20.65,7.8-40.58,14-60.04l-52.05-93.47ZM633.94,828.67c-4.7,1.84-12.1,5.85-16.49,2.02-5.58-4.87.45-12.14,4.49-15.52-16.17-16.48-29.16-31.38-49.97-42.5,3.25,21.69,2.59,45.73,7.46,67.03,5.99,26.15,30.36,56.1,43.69,80.31,16.63,30.19,30.36,62.15,49.82,90.67,7.35-63.27-4.02-128.44-39.01-182ZM632.69,803.84c-9.92,1.3-1.48,15.42,5.29,13.44,8.01-2.34.52-14.2-5.29-13.44ZM691.96,1026.67c8.84-73,1.42-153.8-46.98-211.99-4.02,19.11-26.52-9.68-25.89,13.88l15.69-2.64c38.42,53.27,49.02,121.97,41.62,186.31l15.56,14.45ZM144.95,979.67c-3.93-21.1-.42-41.71-5.49-63-4.38-18.4-17.26-40.08-27.49-56-16.76,43.07-12.04,86.31-8.79,131.27l1.76,1.72c7.08-13.92,25.45-19.86,40.01-14ZM256.96,974.69c-28.96,6.03-59.5-5.35-87.26,4.23-2.54.88-31.84,18.08-32.74,13.26l10.53-5.47c-8.16-13.8-38.99-2-42.28,11.72-5.53,23.01,9.38,51.83,30.77,61.72,13.62,6.29,83.1,22.9,95.54,19.6,8.63-2.29,20.01-14.54,29.42-17.09l-25.98,9.01,46.99-23.98-55,.49c21.16-6.44,41.95-3.34,63.57-5.43,6.71-7.23,22.68-20.34,24-30.03.9-6.65-2.8-13.02,1.43-19.03-9.51-3.01-13.09,11.78-15.56,14.04-3.72,3.41-13.41,6.74-16.92,12.56-29.37-.79-57.28-15.07-86.52-12.61,21.67-15.6,59.22,4.12,77.98-19.99-6.75,3.07-16.55,5.04-19.95-3.53l1.96-9.46ZM275.69,975.93l-15.69.28-.97,8.9c3.3,4.03,16.29.56,17.77-4.18l-1.11-5.01ZM295.96,993.66c.35-.35-4.85-5.68-5.99-5.99-1.12,1.13,4.86,7.11,5.99,5.99ZM275.46,992.69l-12.47,8.47c5.77,8.88,6.67,15.9,19.35,15.24l4.48-5.99-11.37-17.72ZM101.45,997.15l-1.47-1.47c-1.67,6.43-1.96,13.96,1.48,20-.81-5.35,2.34-15.34-.01-18.54ZM248.46,1004.67c-10.15.27-20.36-.2-30.5,0,5.58,1.99,11.75,2.93,17.59,4.08,1.81.36.81-2.51,2.89-2.07.58.13,2.27,2.8,4.72,3.3,2.73.55,24.14,6.98,24.8,4.2l-7.95-12.01c-1.6-.65-9.29,2.44-11.54,2.5ZM650.95,1074.67c1.58-20.9,16.61-35.95,36.99-39.5l-13.65-16.31c-28.27-1.01-47,35.62-23.34,55.81Z"/>
  <path d="M381.96,347.67c-15.5-11.77-34.07-1.32-43.79,12.71-22.9,33.06-11.76,85.81-34.35,120.65l-7.85,9.64c6.99-12.22,12.84-25.35,16.49-38.99,10.07-37.64,4.7-113.81,61.49-111-3.67-10.25-18.05-5.31-25.47-1.98l-.51-2c16.79-8.32,25.42-4.92,33.99,10.98Z"/>
  <path d="M276.96,734.68c-9.13,40.14-19.26,80.24-20.76,121.73-3.14,9.47-26.77,16.99-36.23,15.25,7.36-4.69,31.31-5.94,34.55-15.94,1.85-5.71.47-23.45,1.47-31.53,3.19-25.81,8.87-59.11,17.49-83.5.66-1.88.7-6.58,3.48-6.01Z"/>
  <path d="M284.95,570.67c-3.61-5.21-4.29-14.32-4.96-20.53-3.15-29.29,3.4-76.44,8.95-106,.27-1.45.08-3.07,2.01-3.47-1.84,43.53-14.93,86.23-6,130Z"/>
  <path d="M364.96,329.66c-45.37-1.54-66.69,48.52-76.99,85.01,2.65-26.41,17.01-56.94,37.53-73.96,9.16-7.6,27.88-19.7,39.46-11.05Z"/>
  <path d="M313.95,617.67c-24.45-29.08-27.41-75.49-17.48-110.99-4.64,38.92-3.66,76.77,17.48,110.99Z"/>
  <path d="M502.96,928.68c-18.65,32.26-33.98,66.51-53.98,97.99,16.54-33.19,31.62-68.13,53.98-97.99Z"/>
  <path d="M397.95,652.68c9.91,6.06-21.74,79.95-31.98,87.99,10.64-26.74,31.96-55.31,28.44-85.07l3.54-2.93Z"/>
  <path d="M458.95,723.66l4.5-86.98c6.51,27.47-2.32,58.85-4.5,86.98Z"/>
  <path d="M306.96,865.68c-14.87,19.06-41.67,29.57-64.99,33.99l40.01-17.48,24.98-16.51Z"/>
  <path d="M343.95,624.67c-24.1-13.21-37.32-45.86-35.48-71.99,3.88,28.76,13.18,52.74,35.48,71.99Z"/>
  <path d="M444.95,338.67c-15.22-9.22-40.26-20.06-57.34-9.85-6.29,3.76-5.18,8.98-9.64,12.84,3.16-30.54,53.07-20.49,66.98-2.99Z"/>
  <path d="M488.95,507.67c4.39,24.52,1.89,52.86-9.97,75,6.83-24.02,11.69-48.48,8.21-73.75l1.76-1.25Z"/>
  <path d="M273.98,582.66l2.98-1.98-2.48,3.99c-14.21-21.86-5.82-54.39.47-78-1.69,25.24-10.91,51.26-.97,75.99Z"/>
  <path d="M515.95,742.67c-15.47-21.03-25.58-47.72-31.98-73l31.98,73Z"/>
  <path d="M277.97,925.67l29.28-19.21,28.69-18.28c-16.97,15.83-37.58,26.84-57.97,37.49Z"/>
  <path d="M315.96,889.69c-15.94,10.26-34.58,16.76-52.99,20.98,6-6.13,17.08-7.41,25.01-10.47,9.27-3.58,18.17-8.49,27.98-10.51Z"/>
  <path d="M478.96,593.67c-10.69-2.92-13.87-54.44-7.49-53.99-1.67,18.98.01,36.34,7.49,53.99Z"/>
  <path d="M392.96,311.69c-4.06,3.03-7.64,2.94-12,6.48-5.44,4.42-4.79,8.43-8.99,12.5-.18-10.48,10.5-20.31,20.99-18.98Z"/>
  <path d="M560.96,857.69l-19.99,12.99c-2.13-2.03,17.35-13.3,19.99-12.99Z"/>
  <path d="M378.96,649.68c.01,1.84-7.6,18.49-9.99,15.98l6.81-13.68,3.18-2.3Z"/>
  <path d="M165.96,270.68c-23.54,20.36-57.91,26.06-81.91,45.58-18.4,14.96-29.89,39.15-47.08,55.41,17.88-26.55,36.9-53.22,64.97-69.51,20.4-11.84,43.27-20.17,64.01-31.47Z"/>
  <path d="M107.95,467.67c-24.8-33.49-46.37-77.31-86.98-94.01l.98-2.54c39.88,16.85,65.95,59.9,86,96.54Z"/>
  <path d="M134.95,566.67c-6.85-25.12-27.69-40.86-41.8-61.69l-11.18-19.31c15.61,27.54,49.56,48.29,52.98,80.99Z"/>
  <path d="M165.96,975.67c-1.61,1.76-6.98-7.24-3.49-8.97l3.49,8.97Z"/>
  <path d="M268.96,166.68c-19.71-.52-37.37-13.89-56.59-3.08l-2.4-1.41c6.17-8.21,13.78-13.52,24.5-13.56,8.79-.03,38.46,4.48,34.49,18.05Z"/>
  <path d="M355.96,169.67c-18.11-8.35-35.97-3.72-54.51.02l-2.56-4.5c.09-9.9,29.17-12.24,36.56-11.49,8.32.84,17.87,7.84,20.51,15.97Z"/>
  <path d="M261.72,173.86c.52.87.19,1.89.23,2.82l-5.98-2.51,7.01,5.24-.64,4c-15.34,2.24-26.28,2.56-40.37-4.75,2.46-7.37,6.94-11.01,16.61-11.87,5.55-.49,20.22,2.22,23.14,7.06ZM234.96,174.67l-6.99,3.98,7.99,3.01-1-7ZM258.96,180.66l-8-4.98-1,5.98,9-1Z"/>
  <path d="M342.95,177.7v5.97c-13.42,6.04-27.04,6.98-40.98,1.49-.8-2.27,7.15-5.13,1.96-5.98l1.55-2.48c11.79-8.99,25.93-7.17,37.47,1ZM337.96,181.69l-7.99-3.02-2.01,6.99,10-3.97ZM314.96,185.66l-2.01-5.99-5.96,3.5,7.97,2.49Z"/>
  <path d="M291.96,181.17c.21-1.24,1.53-2.79,1.01-4.5l3.01.52-2.01,23.01-2,1.48c.73-6.26-.99-14.53,0-20.5Z"/>
  <path d="M272.96,180.17c-.07-1.28-2.04-4.19-2.01-5.99l2-.51c2.24,1.75,4.78,20.3.02,22.99-.21-5.47.29-11.03,0-16.5Z"/>
  <path d="M394.97,505.66l1.71-2.77c23.91-9.33,44.82-20.3,71.28-15.7-10.6,12.69-5.86,27.33-25.95,32.02-20.4,4.76-29.84-6.22-47.03-13.56ZM457.96,489.69c-9.16-3.88-14.15,1.35-20.73,2.75-7.59,1.61-15.83-.64-22.26,7.22l42.99-9.97ZM456.96,493.69l-50,11.98c17.06,1.08,38.46,3.62,50-11.98ZM405.97,508.66c17.7,11.36,48.57,14.79,52.98-11.98-14.54,15.65-33.7,13.05-52.98,11.98Z"/>
  <path d="M393.96,432.66c-7.75-2.79-14-3.93-21.99-.97,3.23-2.37,31.95,3.48,25.32,8.01-14.75,5.66-31.34,11.09-46.32,2.46l6.98-1.5-2.98-3.98h6.99s-2-1.99-2-1.99c10.51-3.41,14.75-9.19,27.06-6.57l6.94,4.54ZM392.96,436.68l-9-2,1.01,6.99,7.99-4.99ZM371.96,444.66l-3.48-3.72-3.51,2.24,6.99,1.48Z"/>
  <path d="M346.97,433.67c3.96-17.17,35.31-26.17,49.54-23.05,4.96,1.09,9.3,8.45,2.91,10.01-16.09,3.92-37.59-4.08-52.45,13.04Z"/>
  <path d="M418.96,478.67c-5.82,7.26-15.62-4.59-9.98-13l1.9,1.39c-2.39,8.71-.3,11.12,8.08,11.61l5.51-4.08c4.13-.58,6.46,2.73,10.7,1.86,5.07-1.03,7.85-12.71,11.29-4.81l.51-10.98c11.91,14.14-1.05,10.86-4.07,12.56-2.27,1.28-4.48,5.91-7.67,6.28-.82.1-13.78-.7-16.27-.84Z"/>
  <path d="M428.96,418.68l5,23.99c-3.46,3.58-13.16-23.04-5-23.99Z"/>
  <path d="M454.95,524.67c-9.06-3.48-15.77,1.84-23.99,3.99,4.27-5.69,20.11-11.36,23.99-3.99Z"/>
  <path d="M470.97,489.67l-4-10.99,6.55,4.95c.92,2.34.98,6.28-2.55,6.04Z"/>
  <path d="M439.97,454.68c4.02-.71,8.4,12.04,4.49,11.97l-4.49-11.97Z"/>
  <path d="M390.95,499.67l-1.49,9.97c-2.89-2.49-1.75-8.34,1.49-9.97Z"/>
  <path d="M231.96,1071.68l-1.23,2.26c-3.3,1.45-14.14.42-15.76-4.26l16.99,2Z"/>
  <path d="M283.97,50.67c3.87-11.91,4.01-23.07,0-35,7.91,7.26,6.65,26.95,0,35Z"/>
  <path d="M233.96,32.68l-10.98,22.99c-.61-8.33,2.33-19.47,10.98-22.99Z"/>
  <path d="M621.96,790.68c1.12,1.12-5.86,8.11-6.99,6.99-.5-2.02,5.98-7.99,6.99-6.99Z"/>
</svg>